<svg xmlns="http://www.w3.org/2000/svg" xmlns:xlink="http://www.w3.org/1999/xlink" width="500" zoomAndPan="magnify" viewBox="0 0 375 374.999991" height="500" preserveAspectRatio="xMidYMid meet" version="1.0"><defs><g/><clipPath id="4179a52617"><path d="M 70 122 L 133 122 L 133 167 L 70 167 Z M 70 122 " clip-rule="nonzero"/></clipPath><clipPath id="b3dcca0e9e"><path d="M 65.617188 142.332031 L 118.914062 107.351562 L 141.960938 142.464844 L 88.664062 177.445312 Z M 65.617188 142.332031 " clip-rule="nonzero"/></clipPath><clipPath id="552319b8b5"><path d="M 65.617188 142.332031 L 118.914062 107.351562 L 141.960938 142.464844 L 88.664062 177.445312 Z M 65.617188 142.332031 " clip-rule="nonzero"/></clipPath><clipPath id="be01651518"><path d="M 71 123 L 132 123 L 132 165 L 71 165 Z M 71 123 " clip-rule="nonzero"/></clipPath><clipPath id="f3a69f350f"><path d="M 65.617188 142.332031 L 118.914062 107.351562 L 141.960938 142.464844 L 88.664062 177.445312 Z M 65.617188 142.332031 " clip-rule="nonzero"/></clipPath><clipPath id="96b8e87ce6"><path d="M 65.617188 142.332031 L 118.914062 107.351562 L 141.960938 142.464844 L 88.664062 177.445312 Z M 65.617188 142.332031 " clip-rule="nonzero"/></clipPath><clipPath id="df5c5244d9"><path d="M 75 148 L 85 148 L 85 154 L 75 154 Z M 75 148 " clip-rule="nonzero"/></clipPath><clipPath id="a3ba8a2a29"><path d="M 65.617188 142.332031 L 118.914062 107.351562 L 141.960938 142.464844 L 88.664062 177.445312 Z M 65.617188 142.332031 " clip-rule="nonzero"/></clipPath><clipPath id="310c322179"><path d="M 65.617188 142.332031 L 118.914062 107.351562 L 141.960938 142.464844 L 88.664062 177.445312 Z M 65.617188 142.332031 " clip-rule="nonzero"/></clipPath><clipPath id="953b873f5f"><path d="M 96 130 L 110 130 L 110 138 L 96 138 Z M 96 130 " clip-rule="nonzero"/></clipPath><clipPath id="d457c46c62"><path d="M 65.617188 142.332031 L 118.914062 107.351562 L 141.960938 142.464844 L 88.664062 177.445312 Z M 65.617188 142.332031 " clip-rule="nonzero"/></clipPath><clipPath id="e4cf51d13c"><path d="M 65.617188 142.332031 L 118.914062 107.351562 L 141.960938 142.464844 L 88.664062 177.445312 Z M 65.617188 142.332031 " clip-rule="nonzero"/></clipPath><clipPath id="9ce4ded2d7"><path d="M 92 133 L 129 133 L 129 157 L 92 157 Z M 92 133 " clip-rule="nonzero"/></clipPath><clipPath id="48b29a5e1b"><path d="M 65.617188 142.332031 L 118.914062 107.351562 L 141.960938 142.464844 L 88.664062 177.445312 Z M 65.617188 142.332031 " clip-rule="nonzero"/></clipPath><clipPath id="f8248a3a36"><path d="M 65.617188 142.332031 L 118.914062 107.351562 L 141.960938 142.464844 L 88.664062 177.445312 Z M 65.617188 142.332031 " clip-rule="nonzero"/></clipPath><clipPath id="0ed34fc51b"><path d="M 88 136 L 103 136 L 103 139 L 88 139 Z M 88 136 " clip-rule="nonzero"/></clipPath><clipPath id="2ba87dfe3a"><path d="M 65.617188 142.332031 L 118.914062 107.351562 L 141.960938 142.464844 L 88.664062 177.445312 Z M 65.617188 142.332031 " clip-rule="nonzero"/></clipPath><clipPath id="9f19fd348a"><path d="M 65.617188 142.332031 L 118.914062 107.351562 L 141.960938 142.464844 L 88.664062 177.445312 Z M 65.617188 142.332031 " clip-rule="nonzero"/></clipPath><clipPath id="1aadf06023"><path d="M 116 143 L 119 143 L 119 149 L 116 149 Z M 116 143 " clip-rule="nonzero"/></clipPath><clipPath id="d00e365870"><path d="M 65.617188 142.332031 L 118.914062 107.351562 L 141.960938 142.464844 L 88.664062 177.445312 Z M 65.617188 142.332031 " clip-rule="nonzero"/></clipPath><clipPath id="dc40d251c3"><path d="M 65.617188 142.332031 L 118.914062 107.351562 L 141.960938 142.464844 L 88.664062 177.445312 Z M 65.617188 142.332031 " clip-rule="nonzero"/></clipPath><clipPath id="fdc850247d"><path d="M 101 137 L 124 137 L 124 147 L 101 147 Z M 101 137 " clip-rule="nonzero"/></clipPath><clipPath id="b1446f8f79"><path d="M 65.617188 142.332031 L 118.914062 107.351562 L 141.960938 142.464844 L 88.664062 177.445312 Z M 65.617188 142.332031 " clip-rule="nonzero"/></clipPath><clipPath id="ab4dd7d388"><path d="M 65.617188 142.332031 L 118.914062 107.351562 L 141.960938 142.464844 L 88.664062 177.445312 Z M 65.617188 142.332031 " clip-rule="nonzero"/></clipPath><clipPath id="dd027e10b6"><path d="M 92 145 L 107 145 L 107 150 L 92 150 Z M 92 145 " clip-rule="nonzero"/></clipPath><clipPath id="3df1c49a54"><path d="M 65.617188 142.332031 L 118.914062 107.351562 L 141.960938 142.464844 L 88.664062 177.445312 Z M 65.617188 142.332031 " clip-rule="nonzero"/></clipPath><clipPath id="3c99692171"><path d="M 65.617188 142.332031 L 118.914062 107.351562 L 141.960938 142.464844 L 88.664062 177.445312 Z M 65.617188 142.332031 " clip-rule="nonzero"/></clipPath><clipPath id="5a85d08e82"><path d="M 81 150 L 86 150 L 86 156 L 81 156 Z M 81 150 " clip-rule="nonzero"/></clipPath><clipPath id="b1c10de0ba"><path d="M 65.617188 142.332031 L 118.914062 107.351562 L 141.960938 142.464844 L 88.664062 177.445312 Z M 65.617188 142.332031 " clip-rule="nonzero"/></clipPath><clipPath id="6ee7d6f6ca"><path d="M 65.617188 142.332031 L 118.914062 107.351562 L 141.960938 142.464844 L 88.664062 177.445312 Z M 65.617188 142.332031 " clip-rule="nonzero"/></clipPath></defs><g fill="#13b423" fill-opacity="1"><g transform="translate(82.259135, 200.559654)"><g><path d="M 24.484375 -12.109375 L 17.453125 -12.109375 L 17.453125 0 L 4.5625 0 L 4.5625 -45.578125 L 25.390625 -45.578125 C 29.515625 -45.578125 33.09375 -44.890625 36.125 -43.515625 C 39.164062 -42.148438 41.507812 -40.195312 43.15625 -37.65625 C 44.8125 -35.125 45.640625 -32.144531 45.640625 -28.71875 C 45.640625 -25.414062 44.867188 -22.535156 43.328125 -20.078125 C 41.785156 -17.628906 39.582031 -15.710938 36.71875 -14.328125 L 46.546875 0 L 32.75 0 Z M 32.625 -28.71875 C 32.625 -30.84375 31.945312 -32.488281 30.59375 -33.65625 C 29.25 -34.832031 27.253906 -35.421875 24.609375 -35.421875 L 17.453125 -35.421875 L 17.453125 -22.078125 L 24.609375 -22.078125 C 27.253906 -22.078125 29.25 -22.648438 30.59375 -23.796875 C 31.945312 -24.941406 32.625 -26.582031 32.625 -28.71875 Z M 32.625 -28.71875 "/></g></g></g><g fill="#13b423" fill-opacity="1"><g transform="translate(125.483003, 200.559654)"><g><path d="M 40.046875 -17.578125 C 40.046875 -17.492188 39.976562 -16.472656 39.84375 -14.515625 L 14.1875 -14.515625 C 14.707031 -12.691406 15.71875 -11.289062 17.21875 -10.3125 C 18.71875 -9.34375 20.597656 -8.859375 22.859375 -8.859375 C 24.546875 -8.859375 26.007812 -9.09375 27.25 -9.5625 C 28.488281 -10.039062 29.734375 -10.828125 30.984375 -11.921875 L 37.5 -5.140625 C 34.070312 -1.316406 29.0625 0.59375 22.46875 0.59375 C 18.34375 0.59375 14.71875 -0.1875 11.59375 -1.75 C 8.46875 -3.320312 6.046875 -5.492188 4.328125 -8.265625 C 2.617188 -11.046875 1.765625 -14.191406 1.765625 -17.703125 C 1.765625 -21.179688 2.597656 -24.296875 4.265625 -27.046875 C 5.929688 -29.804688 8.238281 -31.96875 11.1875 -33.53125 C 14.144531 -35.09375 17.46875 -35.875 21.15625 -35.875 C 24.675781 -35.875 27.867188 -35.144531 30.734375 -33.6875 C 33.597656 -32.238281 35.863281 -30.132812 37.53125 -27.375 C 39.207031 -24.625 40.046875 -21.359375 40.046875 -17.578125 Z M 21.21875 -27.078125 C 19.3125 -27.078125 17.71875 -26.535156 16.4375 -25.453125 C 15.15625 -24.367188 14.34375 -22.894531 14 -21.03125 L 28.453125 -21.03125 C 28.109375 -22.894531 27.296875 -24.367188 26.015625 -25.453125 C 24.734375 -26.535156 23.132812 -27.078125 21.21875 -27.078125 Z M 21.21875 -27.078125 "/></g></g></g><g fill="#13b423" fill-opacity="1"><g transform="translate(162.327317, 200.559654)"><g><path d="M 22 0.59375 C 18.09375 0.59375 14.597656 -0.1875 11.515625 -1.75 C 8.441406 -3.320312 6.046875 -5.492188 4.328125 -8.265625 C 2.617188 -11.046875 1.765625 -14.191406 1.765625 -17.703125 C 1.765625 -21.222656 2.617188 -24.359375 4.328125 -27.109375 C 6.046875 -29.867188 8.441406 -32.019531 11.515625 -33.5625 C 14.597656 -35.101562 18.09375 -35.875 22 -35.875 C 26 -35.875 29.453125 -35.015625 32.359375 -33.296875 C 35.265625 -31.585938 37.328125 -29.210938 38.546875 -26.171875 L 28.96875 -21.296875 C 27.363281 -24.460938 25.019531 -26.046875 21.9375 -26.046875 C 19.726562 -26.046875 17.894531 -25.304688 16.4375 -23.828125 C 14.988281 -22.347656 14.265625 -20.304688 14.265625 -17.703125 C 14.265625 -15.054688 14.988281 -12.984375 16.4375 -11.484375 C 17.894531 -9.992188 19.726562 -9.25 21.9375 -9.25 C 25.019531 -9.25 27.363281 -10.832031 28.96875 -14 L 38.546875 -9.109375 C 37.328125 -6.078125 35.265625 -3.703125 32.359375 -1.984375 C 29.453125 -0.265625 26 0.59375 22 0.59375 Z M 22 0.59375 "/></g></g></g><g fill="#13b423" fill-opacity="1"><g transform="translate(196.632823, 200.559654)"><g><path d="M 3.96875 -35.296875 L 16.34375 -35.296875 L 16.34375 0 L 3.96875 0 Z M 10.15625 -39.203125 C 7.894531 -39.203125 6.070312 -39.828125 4.6875 -41.078125 C 3.300781 -42.335938 2.609375 -43.898438 2.609375 -45.765625 C 2.609375 -47.640625 3.300781 -49.203125 4.6875 -50.453125 C 6.070312 -51.710938 7.894531 -52.34375 10.15625 -52.34375 C 12.414062 -52.34375 14.238281 -51.742188 15.625 -50.546875 C 17.007812 -49.359375 17.703125 -47.832031 17.703125 -45.96875 C 17.703125 -44.007812 17.007812 -42.390625 15.625 -41.109375 C 14.238281 -39.835938 12.414062 -39.203125 10.15625 -39.203125 Z M 10.15625 -39.203125 "/></g></g></g><g fill="#13b423" fill-opacity="1"><g transform="translate(212.06003, 200.559654)"><g><path d="M 26.171875 -35.875 C 29.378906 -35.875 32.296875 -35.125 34.921875 -33.625 C 37.554688 -32.125 39.644531 -29.992188 41.1875 -27.234375 C 42.726562 -24.484375 43.5 -21.285156 43.5 -17.640625 C 43.5 -13.992188 42.726562 -10.789062 41.1875 -8.03125 C 39.644531 -5.28125 37.554688 -3.15625 34.921875 -1.65625 C 32.296875 -0.15625 29.378906 0.59375 26.171875 0.59375 C 22.046875 0.59375 18.769531 -0.644531 16.34375 -3.125 L 16.34375 12.625 L 3.96875 12.625 L 3.96875 -35.296875 L 15.75 -35.296875 L 15.75 -31.765625 C 18.050781 -34.503906 21.523438 -35.875 26.171875 -35.875 Z M 23.5625 -9.25 C 25.738281 -9.25 27.519531 -9.992188 28.90625 -11.484375 C 30.289062 -12.984375 30.984375 -15.035156 30.984375 -17.640625 C 30.984375 -20.242188 30.289062 -22.296875 28.90625 -23.796875 C 27.519531 -25.296875 25.738281 -26.046875 23.5625 -26.046875 C 21.394531 -26.046875 19.613281 -25.296875 18.21875 -23.796875 C 16.832031 -22.296875 16.140625 -20.242188 16.140625 -17.640625 C 16.140625 -15.035156 16.832031 -12.984375 18.21875 -11.484375 C 19.613281 -9.992188 21.394531 -9.25 23.5625 -9.25 Z M 23.5625 -9.25 "/></g></g></g><g fill="#13b423" fill-opacity="1"><g transform="translate(252.354514, 200.559654)"><g><path d="M 41.15625 -35.296875 L 25.90625 1.4375 C 24.132812 5.769531 21.96875 8.816406 19.40625 10.578125 C 16.84375 12.335938 13.71875 13.21875 10.03125 13.21875 C 8.164062 13.21875 6.285156 12.921875 4.390625 12.328125 C 2.503906 11.742188 0.972656 10.976562 -0.203125 10.03125 L 4.109375 1.375 C 4.796875 2.019531 5.628906 2.523438 6.609375 2.890625 C 7.585938 3.265625 8.578125 3.453125 9.578125 3.453125 C 10.742188 3.453125 11.707031 3.210938 12.46875 2.734375 C 13.226562 2.253906 13.867188 1.492188 14.390625 0.453125 L -0.71875 -35.296875 L 11.984375 -35.296875 L 20.640625 -13.734375 L 29.359375 -35.296875 Z M 41.15625 -35.296875 "/></g></g></g><g clip-path="url(#4179a52617)"><g clip-path="url(#b3dcca0e9e)"><g clip-path="url(#552319b8b5)"><path fill="#1b2123" d="M 119.339844 156.679688 C 112.054688 156.628906 103.941406 158.042969 96.5 160.664062 C 92.796875 161.964844 89.351562 163.53125 86.257812 165.316406 L 84.679688 166.226562 L 84.445312 154.988281 C 82.050781 155.453125 77.027344 155.90625 73.230469 152.6875 C 71.390625 151.128906 70.429688 149.457031 70.300781 147.585938 C 70.128906 145.125 71.222656 138.675781 78.753906 136.386719 C 84.386719 134.402344 91.203125 136.265625 92.605469 136.691406 C 93.164062 136.601562 93.6875 136.46875 94.207031 136.285156 C 96.292969 135.550781 97.964844 134.089844 99.902344 132.394531 C 102.671875 129.980469 106.113281 126.972656 112.183594 124.835938 C 112.929688 124.570312 113.710938 124.324219 114.507812 124.097656 C 121.449219 122.128906 126.230469 122.375 129.121094 124.855469 C 130.402344 125.953125 133.148438 130.183594 132.433594 135.710938 C 132.117188 138.660156 130.109375 141.085938 127.449219 143.242188 C 126.191406 144.261719 123.980469 145.726562 120.570312 146.929688 C 119.636719 147.257812 118.820312 147.492188 118.214844 147.652344 L 120.765625 156.6875 Z M 119.339844 156.679688 " fill-opacity="1" fill-rule="nonzero"/></g></g></g><g clip-path="url(#be01651518)"><g clip-path="url(#f3a69f350f)"><g clip-path="url(#96b8e87ce6)"><path fill="#13b423" d="M 130.867188 135.421875 C 130.523438 138.625 128.628906 141 126.339844 142.730469 C 122.242188 145.828125 116.867188 146.847656 116.867188 146.847656 L 119.339844 155.589844 C 116.519531 155.570312 113.585938 155.765625 110.617188 156.160156 C 101.960938 157.3125 93.007812 160.164062 85.71875 164.367188 L 85.496094 153.613281 C 85.496094 153.613281 78.578125 155.804688 73.917969 151.855469 C 70.957031 149.347656 70.46875 144.925781 74.511719 140.164062 C 80.128906 133.949219 92.53125 137.804688 92.53125 137.804688 C 99.945312 136.785156 101.386719 128.957031 114.804688 125.148438 C 128.179688 121.351562 131.824219 126.46875 130.867188 135.421875 Z M 130.867188 135.421875 " fill-opacity="1" fill-rule="nonzero"/></g></g></g><g clip-path="url(#df5c5244d9)"><g clip-path="url(#a3ba8a2a29)"><g clip-path="url(#310c322179)"><path fill="#0f821b" d="M 84.808594 153.511719 C 84.808594 153.511719 79.898438 153.832031 77.609375 152.570312 C 75.261719 151.28125 74.769531 149.753906 75.261719 149.914062 C 75.753906 150.074219 77.773438 151.792969 79.292969 151.148438 C 80.808594 150.503906 78.390625 148.589844 79.859375 148.738281 C 81.328125 148.882812 83.046875 150.046875 83.980469 151.15625 C 84.914062 152.261719 84.808594 153.511719 84.808594 153.511719 Z M 84.808594 153.511719 " fill-opacity="1" fill-rule="nonzero"/></g></g></g><g clip-path="url(#953b873f5f)"><g clip-path="url(#d457c46c62)"><g clip-path="url(#e4cf51d13c)"><path fill="#0f821b" d="M 96.671875 137.417969 C 96.671875 137.417969 100.046875 136.710938 103.292969 133.949219 C 106.539062 131.1875 109.097656 129.710938 109.496094 130.84375 C 109.894531 131.972656 109.050781 134.117188 104.972656 136.132812 C 100.894531 138.144531 96.671875 137.417969 96.671875 137.417969 Z M 96.671875 137.417969 " fill-opacity="1" fill-rule="nonzero"/></g></g></g><g clip-path="url(#9ce4ded2d7)"><g clip-path="url(#48b29a5e1b)"><g clip-path="url(#f8248a3a36)"><path fill="#0f821b" d="M 128.335938 139.4375 C 128.292969 139.511719 127.136719 141.476562 126.339844 142.730469 C 122.238281 145.828125 116.867188 146.847656 116.867188 146.847656 L 119.339844 155.589844 C 116.519531 155.570312 113.585938 155.765625 110.617188 156.160156 C 111.339844 155.527344 111.863281 154.5625 111.808594 153.09375 C 111.648438 148.734375 110.496094 146.339844 110.496094 146.339844 C 110.496094 146.339844 106.359375 150.285156 102.613281 150.980469 C 98.894531 151.671875 92.832031 148.285156 92.738281 148.230469 C 92.804688 148.222656 96.460938 147.851562 98.445312 147 C 100.445312 146.140625 100.445312 146.140625 100.445312 146.140625 C 98.539062 144.300781 96.8125 142.515625 98.613281 141.800781 C 98.613281 141.800781 105.394531 145.800781 114.148438 141.003906 C 122.902344 136.210938 122.128906 132.277344 124.597656 134.054688 C 127.066406 135.832031 122.742188 141.871094 124.667969 141.660156 C 126.554688 141.453125 128.273438 139.503906 128.335938 139.4375 Z M 128.335938 139.4375 " fill-opacity="1" fill-rule="nonzero"/></g></g></g><g clip-path="url(#0ed34fc51b)"><g clip-path="url(#2ba87dfe3a)"><g clip-path="url(#9f19fd348a)"><path fill="#1b2123" d="M 88.914062 136.867188 C 88.914062 136.867188 92.972656 138.40625 96.605469 138.550781 C 100.234375 138.691406 102.800781 136.683594 102.800781 136.683594 C 102.800781 136.683594 99.1875 137.480469 96.671875 137.421875 C 94.160156 137.355469 93.644531 137.222656 93.644531 137.222656 Z M 88.914062 136.867188 " fill-opacity="1" fill-rule="nonzero"/></g></g></g><g clip-path="url(#1aadf06023)"><g clip-path="url(#d00e365870)"><g clip-path="url(#dc40d251c3)"><path fill="#1b2123" d="M 116.425781 143.324219 C 116.234375 144.003906 116.882812 146.792969 117.449219 148.875 L 118.214844 147.652344 C 117.753906 146.167969 117.414062 144.855469 117.164062 143.6875 Z M 116.425781 143.324219 " fill-opacity="1" fill-rule="nonzero"/></g></g></g><g clip-path="url(#fdc850247d)"><g clip-path="url(#b1446f8f79)"><g clip-path="url(#ab4dd7d388)"><path fill="#1b2123" d="M 123.554688 137.449219 C 123.554688 137.449219 121.960938 141.660156 114.292969 143.839844 C 106.625 146.019531 101.445312 144.714844 101.445312 144.714844 C 101.445312 144.714844 106.433594 147.015625 113.601562 145.488281 C 118.085938 144.429688 116.898438 144.703125 119.539062 143.128906 C 122.179688 141.550781 123.554688 137.449219 123.554688 137.449219 Z M 123.554688 137.449219 " fill-opacity="1" fill-rule="nonzero"/></g></g></g><g clip-path="url(#dd027e10b6)"><g clip-path="url(#3df1c49a54)"><g clip-path="url(#3c99692171)"><path fill="#1b2123" d="M 104.765625 145.386719 C 102.1875 148.214844 96.734375 149.914062 92.035156 148.960938 C 92.035156 148.960938 93.5 150.246094 98.082031 149.917969 C 102.664062 149.59375 106.941406 145.515625 106.941406 145.515625 Z M 104.765625 145.386719 " fill-opacity="1" fill-rule="nonzero"/></g></g></g><g clip-path="url(#5a85d08e82)"><g clip-path="url(#b1c10de0ba)"><g clip-path="url(#6ee7d6f6ca)"><path fill="#1b2123" d="M 85.402344 155.011719 C 85.480469 154.699219 85.679688 153.679688 85.355469 152.753906 C 85.027344 151.824219 81.695312 150.058594 81.695312 150.058594 C 81.695312 150.058594 83.632812 151.839844 84.125 152.710938 C 84.617188 153.582031 84.445312 154.988281 84.445312 154.988281 Z M 85.402344 155.011719 " fill-opacity="1" fill-rule="nonzero"/></g></g></g></svg>